<?xml version="1.0" standalone="no"?>
<!DOCTYPE svg PUBLIC "-//W3C//DTD SVG 20010904//EN"
 "http://www.w3.org/TR/2001/REC-SVG-20010904/DTD/svg10.dtd">
<svg version="1.0" xmlns="http://www.w3.org/2000/svg"
 width="512.000000pt" height="512.000000pt" viewBox="0 0 512.000000 512.000000"
 preserveAspectRatio="xMidYMid meet">
<metadata>
Created by potrace 1.14, written by Peter Selinger 2001-2017
</metadata>
<g transform="translate(0.000000,512.000000) scale(0.100000,-0.100000)"
fill="#000000" stroke="none">
<path d="M1067 4988 c-47 -35 -247 -177 -444 -317 -197 -140 -389 -278 -428
-306 -38 -28 -91 -66 -117 -84 -71 -48 -86 -88 -48 -129 33 -35 65 -27 157 38
46 33 86 60 88 60 3 0 5 -263 5 -585 l0 -586 25 -24 24 -25 391 0 390 0 0
-1390 0 -1389 22 -21 c22 -20 28 -20 1145 -20 l1123 0 0 -49 c0 -42 4 -53 26
-70 26 -21 34 -21 678 -21 643 0 653 0 674 20 21 20 22 27 22 251 0 216 1 231
18 224 49 -20 56 -16 146 77 108 114 146 164 146 194 0 23 -49 70 -195 184
-31 25 -62 50 -68 55 -7 6 -32 26 -57 45 -25 19 -54 42 -65 52 -11 9 -49 39
-85 68 -36 28 -78 62 -95 75 -272 221 -423 335 -442 335 -18 0 -406 -300 -713
-550 -19 -16 -92 -74 -162 -130 -165 -131 -165 -131 -45 -265 138 -151 150
-161 195 -144 22 8 22 8 22 -101 l0 -110 -1075 0 -1075 0 0 440 0 440 705 0
706 0 24 25 c25 24 25 26 25 210 l0 185 286 0 c281 0 316 4 336 34 4 6 8 114
8 239 0 214 1 227 18 218 37 -20 70 0 154 92 46 50 88 95 94 101 30 30 46 67
40 91 -5 19 -137 130 -478 402 -259 206 -483 383 -498 391 -22 13 -33 14 -51
5 -19 -9 -159 -116 -269 -206 -8 -7 -53 -43 -100 -80 -47 -38 -94 -75 -104
-84 -10 -8 -60 -47 -110 -87 -50 -39 -93 -73 -96 -76 -3 -3 -71 -58 -151 -122
-156 -124 -174 -148 -144 -194 14 -22 58 -71 165 -186 46 -48 81 -63 113 -46
16 8 17 -5 17 -220 0 -226 0 -229 23 -250 23 -22 29 -22 315 -22 l292 0 0
-140 0 -140 -660 0 -660 0 0 830 0 830 393 0 394 0 21 23 22 23 0 587 c0 323
2 587 5 587 3 0 42 -27 87 -60 86 -63 117 -72 156 -44 29 20 29 65 0 97 -13
14 -270 201 -571 416 -401 286 -556 391 -576 391 -17 0 -58 -22 -114 -62z
m311 -230 c103 -73 192 -137 199 -143 6 -5 90 -66 187 -134 l176 -124 0 -594
0 -593 -110 0 -110 0 0 466 c0 464 -2 495 -34 516 -19 13 -982 10 -1010 -3
-13 -6 -27 -21 -30 -33 -3 -11 -6 -229 -6 -483 l0 -463 -110 0 -110 0 0 593 0
592 225 160 c124 88 240 170 258 183 217 158 264 190 275 191 7 1 97 -59 200
-131z m202 -793 l0 -55 -400 0 -400 0 0 55 0 55 400 0 400 0 0 -55z m0 -255
l0 -60 -400 0 -400 0 0 60 0 60 400 0 400 0 0 -60z m0 -255 l0 -55 -400 0
-400 0 0 55 0 55 400 0 400 0 0 -55z m0 -240 l0 -45 -400 0 -400 0 0 45 0 45
400 0 400 0 0 -45z m1100 -178 c14 -12 56 -46 94 -76 37 -29 75 -59 85 -67 9
-7 149 -119 311 -249 162 -129 296 -238 297 -242 2 -5 -17 -30 -40 -56 l-43
-48 -335 267 c-184 147 -336 271 -339 274 -7 10 -68 41 -77 39 -14 -2 -59 -37
-400 -310 l-337 -270 -43 48 c-23 26 -42 51 -43 54 0 3 51 46 112 95 62 49
122 96 133 106 11 9 103 82 205 163 214 171 236 188 310 249 30 25 62 45 70
45 8 1 26 -9 40 -22z m-18 -334 c2 -5 123 -104 271 -221 l267 -214 0 -239 0
-239 -560 0 -560 0 0 239 0 239 67 54 c38 29 77 61 88 70 107 90 402 318 411
318 7 0 14 -3 16 -7z m1598 -1339 c41 -32 84 -67 95 -76 11 -9 145 -116 298
-238 152 -121 277 -224 277 -228 0 -4 -19 -28 -43 -54 l-42 -48 -30 25 c-16
13 -104 84 -195 156 -91 72 -183 147 -205 165 -127 105 -273 217 -293 225 -15
6 -31 5 -45 -3 -12 -6 -176 -134 -364 -285 -187 -150 -346 -273 -351 -273 -10
0 -92 80 -92 90 0 3 44 40 98 83 53 42 241 192 416 332 l319 255 41 -33 c23
-18 75 -60 116 -93z m-99 -276 c30 -23 56 -45 59 -48 3 -3 32 -27 65 -53 59
-46 264 -210 338 -269 l37 -31 0 -238 0 -239 -560 0 -560 0 0 239 0 239 129
103 c71 57 192 154 268 214 76 61 140 113 141 118 7 15 31 5 83 -35z"/>
</g>
</svg>
